{
  "accessors": [
    {
      "bufferView": 2,
      "componentType": 5126,
      "count": 2111,
      "max": [
        0.3183765411376953,
        0.2692396938800812,
        2.241657018661499
      ],
      "min": [
        -0.31568464636802673,
        -0.3540472388267517,
        1.2814998626708984e-06
      ],
      "type": "VEC3"
    },
    {
      "bufferView": 2,
      "byteOffset": 25332,
      "componentType": 5126,
      "count": 2111,
      "max": [
        0.9999280571937561,
        0.9992585182189941,
        0.9999516010284424
      ],
      "min": [
        -0.999591588973999,
        -0.9999999403953552,
        -1.0
      ],
      "type": "VEC3"
    },
    {
      "bufferView": 3,
      "componentType": 5126,
      "count": 2111,
      "max": [
        1.0,
        0.9945814609527588,
        0.9984265565872192,
        1.0
      ],
      "min": [
        -0.9999696016311646,
        -0.9984439611434937,
        -0.9997313022613525,
        -1.0
      ],
      "type": "VEC4"
    },
    {
      "bufferView": 1,
      "componentType": 5126,
      "count": 2111,
      "max": [
        0.9878061413764954,
        0.9806550145149231
      ],
      "min": [
        0.014456331729888916,
        0.006717521697282791
      ],
      "type": "VEC2"
    },
    {
      "bufferView": 1,
      "byteOffset": 16888,
      "componentType": 5126,
      "count": 2111,
      "max": [
        0.9878061413764954,
        0.9806550145149231
      ],
      "min": [
        0.014456331729888916,
        0.006717521697282791
      ],
      "type": "VEC2"
    },
    {
      "bufferView": 1,
      "byteOffset": 33776,
      "componentType": 5126,
      "count": 2111,
      "max": [
        0.9878061413764954,
        0.9806550145149231
      ],
      "min": [
        0.014456331729888916,
        0.006717521697282791
      ],
      "type": "VEC2"
    },
    {
      "bufferView": 0,
      "componentType": 5125,
      "count": 7503,
      "type": "SCALAR"
    }
  ],
  "asset": {
    "extras": {
      "author": "Beeptea (https://sketchfab.com/beeptea)",
      "license": "SKETCHFAB Standard (https://sketchfab.com/licenses)",
      "source": "https://sketchfab.com/3d-models/sunflower-3a09a0a4b6ed444c9228707c1cd4f7b7",
      "title": "Sunflower"
    },
    "generator": "Sketchfab-16.74.0",
    "version": "2.0"
  },
  "bufferViews": [
    {
      "buffer": 0,
      "byteLength": 30012,
      "name": "floatBufferViews",
      "target": 34963
    },
    {
      "buffer": 0,
      "byteLength": 50664,
      "byteOffset": 30012,
      "byteStride": 8,
      "name": "floatBufferViews",
      "target": 34962
    },
    {
      "buffer": 0,
      "byteLength": 50664,
      "byteOffset": 80676,
      "byteStride": 12,
      "name": "floatBufferViews",
      "target": 34962
    },
    {
      "buffer": 0,
      "byteLength": 33776,
      "byteOffset": 131340,
      "byteStride": 16,
      "name": "floatBufferViews",
      "target": 34962
    }
  ],
  "buffers": [
    {
      "byteLength": 165116,
      "uri": "scene.bin"
    }
  ],
  "images": [
    {
      "uri": "textures/Sunflower_baseColor.png"
    },
    {
      "uri": "textures/Sunflower_metallicRoughness.png"
    },
    {
      "uri": "textures/Sunflower_normal.png"
    }
  ],
  "materials": [
    {
      "doubleSided": true,
      "name": "Sunflower",
      "normalTexture": {
        "index": 2
      },
      "pbrMetallicRoughness": {
        "baseColorTexture": {
          "index": 0
        },
        "metallicFactor": 0.0,
        "metallicRoughnessTexture": {
          "index": 1
        }
      }
    }
  ],
  "meshes": [
    {
      "name": "Sunflower_Sunflower_0",
      "primitives": [
        {
          "attributes": {
            "NORMAL": 1,
            "POSITION": 0,
            "TANGENT": 2,
            "TEXCOORD_0": 3,
            "TEXCOORD_1": 4,
            "TEXCOORD_2": 5
          },
          "indices": 6,
          "material": 0,
          "mode": 4
        }
      ]
    }
  ],
  "nodes": [
    {
      "children": [
        1
      ],
      "matrix": [
        1.0,
        0.0,
        0.0,
        0.0,
        0.0,
        2.220446049250313e-16,
        -1.0,
        0.0,
        0.0,
        1.0,
        2.220446049250313e-16,
        0.0,
        0.0,
        0.0,
        0.0,
        1.0
      ],
      "name": "Sketchfab_model"
    },
    {
      "children": [
        2
      ],
      "matrix": [
        1.0,
        0.0,
        0.0,
        0.0,
        0.0,
        0.0,
        1.0,
        0.0,
        0.0,
        -1.0,
        0.0,
        0.0,
        0.0,
        0.0,
        0.0,
        1.0
      ],
      "name": "3934641639d648919b014ef758d29cab.fbx"
    },
    {
      "children": [
        3
      ],
      "name": "RootNode"
    },
    {
      "children": [
        4
      ],
      "matrix": [
        1.0,
        0.0,
        0.0,
        0.0,
        0.0,
        -1.6292067939183141e-07,
        -0.9999999999999868,
        0.0,
        0.0,
        0.9999999999999868,
        -1.6292067939183141e-07,
        0.0,
        0.0,
        0.0,
        0.0,
        1.0
      ],
      "name": "Sunflower"
    },
    {
      "mesh": 0,
      "name": "Sunflower_Sunflower_0"
    }
  ],
  "samplers": [
    {
      "magFilter": 9729,
      "minFilter": 9987,
      "wrapS": 10497,
      "wrapT": 10497
    }
  ],
  "scene": 0,
  "scenes": [
    {
      "name": "Sketchfab_Scene",
      "nodes": [
        0
      ]
    }
  ],
  "textures": [
    {
      "sampler": 0,
      "source": 0
    },
    {
      "sampler": 0,
      "source": 1
    },
    {
      "sampler": 0,
      "source": 2
    }
  ]
}
