{
  "accessors": [
    {
      "bufferView": 2,
      "componentType": 5126,
      "count": 65532,
      "max": [
        0.18208299577236176,
        0.15014800429344177,
        0.24675600230693817
      ],
      "min": [
        -0.19600899517536163,
        -0.13877199590206146,
        -0.6484400033950806
      ],
      "type": "VEC3"
    },
    {
      "bufferView": 2,
      "byteOffset": 786384,
      "componentType": 5126,
      "count": 65532,
      "max": [
        0.999860405921936,
        0.999994158744812,
        0.999994158744812
      ],
      "min": [
        -0.9999982118606567,
        -0.9999403953552246,
        -0.9997009634971619
      ],
      "type": "VEC3"
    },
    {
      "bufferView": 1,
      "componentType": 5126,
      "count": 65532,
      "max": [
        0.0,
        0.0
      ],
      "min": [
        0.0,
        0.0
      ],
      "type": "VEC2"
    },
    {
      "bufferView": 0,
      "componentType": 5125,
      "count": 71754,
      "type": "SCALAR"
    },
    {
      "bufferView": 2,
      "byteOffset": 1572768,
      "componentType": 5126,
      "count": 65533,
      "max": [
        0.18208299577236176,
        0.1511639952659607,
        0.2476319968700409
      ],
      "min": [
        -0.19753800332546234,
        -0.13877199590206146,
        -0.6472560167312622
      ],
      "type": "VEC3"
    },
    {
      "bufferView": 2,
      "byteOffset": 2359164,
      "componentType": 5126,
      "count": 65533,
      "max": [
        0.999873161315918,
        0.9999988079071045,
        0.9999901056289673
      ],
      "min": [
        -0.9999822378158569,
        -0.9998349547386169,
        -0.9999973773956299
      ],
      "type": "VEC3"
    },
    {
      "bufferView": 1,
      "byteOffset": 524256,
      "componentType": 5126,
      "count": 65533,
      "max": [
        0.0,
        0.0
      ],
      "min": [
        0.0,
        0.0
      ],
      "type": "VEC2"
    },
    {
      "bufferView": 0,
      "byteOffset": 287016,
      "componentType": 5125,
      "count": 70437,
      "type": "SCALAR"
    },
    {
      "bufferView": 2,
      "byteOffset": 3145560,
      "componentType": 5126,
      "count": 65532,
      "max": [
        0.18065500259399414,
        0.15060999989509583,
        0.2476319968700409
      ],
      "min": [
        -0.19753800332546234,
        -0.13857600092887878,
        -0.6484400033950806
      ],
      "type": "VEC3"
    },
    {
      "bufferView": 2,
      "byteOffset": 3931944,
      "componentType": 5126,
      "count": 65532,
      "max": [
        0.9999878406524658,
        0.9999878406524658,
        0.999934196472168
      ],
      "min": [
        -0.9999810457229614,
        -0.9999693632125854,
        -0.9999706745147705
      ],
      "type": "VEC3"
    },
    {
      "bufferView": 1,
      "byteOffset": 1048520,
      "componentType": 5126,
      "count": 65532,
      "max": [
        0.0,
        0.0
      ],
      "min": [
        0.0,
        0.0
      ],
      "type": "VEC2"
    },
    {
      "bufferView": 0,
      "byteOffset": 568764,
      "componentType": 5125,
      "count": 68994,
      "type": "SCALAR"
    },
    {
      "bufferView": 2,
      "byteOffset": 4718328,
      "componentType": 5126,
      "count": 61310,
      "max": [
        0.18208299577236176,
        0.1511639952659607,
        0.24689500033855438
      ],
      "min": [
        -0.19753800332546234,
        -0.13868600130081177,
        -0.6453250050544739
      ],
      "type": "VEC3"
    },
    {
      "bufferView": 2,
      "byteOffset": 5454048,
      "componentType": 5126,
      "count": 61310,
      "max": [
        0.9999446868896484,
        0.9999614953994751,
        0.9999510049819946
      ],
      "min": [
        -0.9998972415924072,
        -0.9998952150344849,
        -0.9998648166656494
      ],
      "type": "VEC3"
    },
    {
      "bufferView": 1,
      "byteOffset": 1572776,
      "componentType": 5126,
      "count": 61310,
      "max": [
        0.0,
        0.0
      ],
      "min": [
        0.0,
        0.0
      ],
      "type": "VEC2"
    },
    {
      "bufferView": 0,
      "byteOffset": 844740,
      "componentType": 5125,
      "count": 62934,
      "type": "SCALAR"
    },
    {
      "bufferView": 2,
      "byteOffset": 6189768,
      "componentType": 5126,
      "count": 16206,
      "max": [
        0.15457400679588318,
        0.08953200280666351,
        0.13626299798488617
      ],
      "min": [
        -0.059602998197078705,
        -0.11649300158023834,
        -0.648231029510498
      ],
      "type": "VEC3"
    },
    {
      "bufferView": 2,
      "byteOffset": 6384240,
      "componentType": 5126,
      "count": 16206,
      "max": [
        0.999994158744812,
        0.9999909400939941,
        0.9985812902450562
      ],
      "min": [
        -0.999997615814209,
        -0.9999361038208008,
        -0.9853693842887878
      ],
      "type": "VEC3"
    },
    {
      "bufferView": 1,
      "byteOffset": 2063256,
      "componentType": 5126,
      "count": 16206,
      "max": [
        0.0,
        0.0
      ],
      "min": [
        0.0,
        0.0
      ],
      "type": "VEC2"
    },
    {
      "bufferView": 0,
      "byteOffset": 1096476,
      "componentType": 5125,
      "count": 17592,
      "type": "SCALAR"
    },
    {
      "bufferView": 2,
      "byteOffset": 6578712,
      "componentType": 5126,
      "count": 14689,
      "max": [
        0.1722719967365265,
        0.11880400031805038,
        0.22006799280643463
      ],
      "min": [
        -0.1962530016899109,
        -0.11912500113248825,
        -0.27383700013160706
      ],
      "type": "VEC3"
    },
    {
      "bufferView": 2,
      "byteOffset": 6754980,
      "componentType": 5126,
      "count": 14689,
      "max": [
        0.9999204874038696,
        0.997067928314209,
        0.9996445775032043
      ],
      "min": [
        -0.9992145299911499,
        -0.999623715877533,
        -0.9979848265647888
      ],
      "type": "VEC3"
    },
    {
      "bufferView": 1,
      "byteOffset": 2192904,
      "componentType": 5126,
      "count": 14689,
      "max": [
        0.0,
        0.0
      ],
      "min": [
        0.0,
        0.0
      ],
      "type": "VEC2"
    },
    {
      "bufferView": 0,
      "byteOffset": 1166844,
      "componentType": 5125,
      "count": 15525,
      "type": "SCALAR"
    }
  ],
  "asset": {
    "extras": {
      "author": "BellaBe33 (https://sketchfab.com/BellaBe33)",
      "license": "CC-BY-4.0 (http://creativecommons.org/licenses/by/4.0/)",
      "source": "https://sketchfab.com/3d-models/bluebell-ead6b1ef650c44a1b76cee832bd7e27d",
      "title": "bluebell"
    },
    "generator": "Sketchfab-13.21.0",
    "version": "2.0"
  },
  "bufferViews": [
    {
      "buffer": 0,
      "byteLength": 1228944,
      "name": "floatBufferViews",
      "target": 34963
    },
    {
      "buffer": 0,
      "byteLength": 2310416,
      "byteOffset": 1228944,
      "byteStride": 8,
      "name": "floatBufferViews",
      "target": 34962
    },
    {
      "buffer": 0,
      "byteLength": 6931248,
      "byteOffset": 3539360,
      "byteStride": 12,
      "name": "floatBufferViews",
      "target": 34962
    }
  ],
  "buffers": [
    {
      "byteLength": 10470608,
      "uri": "scene.bin"
    }
  ],
  "materials": [
    {
      "doubleSided": true,
      "name": "Material.015",
      "pbrMetallicRoughness": {
        "baseColorFactor": [
          0.14702726649759493,
          0.10461648409110419,
          0.33716361504833037,
          1.0
        ],
        "metallicFactor": 0.0,
        "roughnessFactor": 0.6
      }
    },
    {
      "doubleSided": true,
      "name": "Material.016",
      "pbrMetallicRoughness": {
        "baseColorFactor": [
          0.03954623527673283,
          0.24620132670783548,
          0.04970656598412721,
          1.0
        ],
        "metallicFactor": 0.0,
        "roughnessFactor": 0.6
      }
    },
    {
      "doubleSided": true,
      "name": "Material.017",
      "pbrMetallicRoughness": {
        "baseColorFactor": [
          0.14702726649759493,
          0.10461648409110419,
          0.33716361504833037,
          1.0
        ],
        "metallicFactor": 0.0,
        "roughnessFactor": 0.6
      }
    }
  ],
  "meshes": [
    {
      "name": "Object_0",
      "primitives": [
        {
          "attributes": {
            "NORMAL": 1,
            "POSITION": 0,
            "TEXCOORD_0": 2
          },
          "indices": 3,
          "material": 0,
          "mode": 4
        }
      ]
    },
    {
      "name": "Object_1",
      "primitives": [
        {
          "attributes": {
            "NORMAL": 5,
            "POSITION": 4,
            "TEXCOORD_0": 6
          },
          "indices": 7,
          "material": 0,
          "mode": 4
        }
      ]
    },
    {
      "name": "Object_2",
      "primitives": [
        {
          "attributes": {
            "NORMAL": 9,
            "POSITION": 8,
            "TEXCOORD_0": 10
          },
          "indices": 11,
          "material": 0,
          "mode": 4
        }
      ]
    },
    {
      "name": "Object_3",
      "primitives": [
        {
          "attributes": {
            "NORMAL": 13,
            "POSITION": 12,
            "TEXCOORD_0": 14
          },
          "indices": 15,
          "material": 0,
          "mode": 4
        }
      ]
    },
    {
      "name": "Object_4",
      "primitives": [
        {
          "attributes": {
            "NORMAL": 17,
            "POSITION": 16,
            "TEXCOORD_0": 18
          },
          "indices": 19,
          "material": 1,
          "mode": 4
        }
      ]
    },
    {
      "name": "Object_5",
      "primitives": [
        {
          "attributes": {
            "NORMAL": 21,
            "POSITION": 20,
            "TEXCOORD_0": 22
          },
          "indices": 23,
          "material": 2,
          "mode": 4
        }
      ]
    }
  ],
  "nodes": [
    {
      "children": [
        1
      ],
      "matrix": [
        1.0,
        0.0,
        0.0,
        0.0,
        0.0,
        2.220446049250313e-16,
        -1.0,
        0.0,
        0.0,
        1.0,
        2.220446049250313e-16,
        0.0,
        0.0,
        0.0,
        0.0,
        1.0
      ],
      "name": "Sketchfab_model"
    },
    {
      "children": [
        2,
        3,
        4,
        5,
        6,
        7
      ],
      "name": "bluebell.obj.cleaner.materialmerger.gles"
    },
    {
      "mesh": 0,
      "name": "Object_2"
    },
    {
      "mesh": 1,
      "name": "Object_3"
    },
    {
      "mesh": 2,
      "name": "Object_4"
    },
    {
      "mesh": 3,
      "name": "Object_5"
    },
    {
      "mesh": 4,
      "name": "Object_6"
    },
    {
      "mesh": 5,
      "name": "Object_7"
    }
  ],
  "scene": 0,
  "scenes": [
    {
      "name": "Sketchfab_Scene",
      "nodes": [
        0
      ]
    }
  ]
}
