{
  "accessors": [
    {
      "bufferView": 2,
      "componentType": 5126,
      "count": 65532,
      "max": [
        17.226552963256836,
        4.76837158203125e-06,
        21.26713752746582
      ],
      "min": [
        -18.119094848632813,
        -16.460853576660156,
        -10.994464874267578
      ],
      "type": "VEC3"
    },
    {
      "bufferView": 2,
      "byteOffset": 786384,
      "componentType": 5126,
      "count": 65532,
      "max": [
        1.0,
        1.0,
        1.0
      ],
      "min": [
        -1.0,
        -1.0,
        -1.0
      ],
      "type": "VEC3"
    },
    {
      "bufferView": 1,
      "componentType": 5126,
      "count": 65532,
      "max": [
        0.9997559785842896,
        0.9997559785842896
      ],
      "min": [
        0.00024399999529123306,
        0.00024399999529123306
      ],
      "type": "VEC2"
    },
    {
      "bufferView": 0,
      "componentType": 5125,
      "count": 187620,
      "type": "SCALAR"
    },
    {
      "bufferView": 2,
      "byteOffset": 1572768,
      "componentType": 5126,
      "count": 25812,
      "max": [
        17.222627639770508,
        -0.8637199401855469,
        21.26713752746582
      ],
      "min": [
        -18.114669799804688,
        -16.02475357055664,
        -10.994464874267578
      ],
      "type": "VEC3"
    },
    {
      "bufferView": 2,
      "byteOffset": 1882512,
      "componentType": 5126,
      "count": 25812,
      "max": [
        0.9999853372573853,
        0.9999983310699463,
        0.9999796748161316
      ],
      "min": [
        -0.9999994039535522,
        -0.9999960660934448,
        -0.9999868869781494
      ],
      "type": "VEC3"
    },
    {
      "bufferView": 1,
      "byteOffset": 524256,
      "componentType": 5126,
      "count": 25812,
      "max": [
        0.9997559785842896,
        0.9997559785842896
      ],
      "min": [
        0.00024399999529123306,
        0.00024399999529123306
      ],
      "type": "VEC2"
    },
    {
      "bufferView": 0,
      "byteOffset": 750480,
      "componentType": 5125,
      "count": 40152,
      "type": "SCALAR"
    },
    {
      "bufferView": 2,
      "byteOffset": 2192256,
      "componentType": 5126,
      "count": 65533,
      "max": [
        17.226551055908203,
        4.76837158203125e-06,
        21.25319480895996
      ],
      "min": [
        -18.119537353515625,
        -16.56511878967285,
        -10.994464874267578
      ],
      "type": "VEC3"
    },
    {
      "bufferView": 2,
      "byteOffset": 2978652,
      "componentType": 5126,
      "count": 65533,
      "max": [
        0.999999463558197,
        0.9999998211860657,
        0.9999995231628418
      ],
      "min": [
        -0.9999995231628418,
        -0.9999997019767761,
        -1.0
      ],
      "type": "VEC3"
    },
    {
      "bufferView": 1,
      "byteOffset": 730752,
      "componentType": 5126,
      "count": 65533,
      "max": [
        0.9997559785842896,
        1.9997559785842896
      ],
      "min": [
        0.00024399999529123306,
        1.0002440214157104
      ],
      "type": "VEC2"
    },
    {
      "bufferView": 0,
      "byteOffset": 911088,
      "componentType": 5125,
      "count": 188394,
      "type": "SCALAR"
    },
    {
      "bufferView": 2,
      "byteOffset": 3765048,
      "componentType": 5126,
      "count": 15639,
      "max": [
        17.22199249267578,
        -1.4590301513671875,
        21.111967086791992
      ],
      "min": [
        -18.117027282714844,
        -16.552074432373047,
        -10.971599578857422
      ],
      "type": "VEC3"
    },
    {
      "bufferView": 2,
      "byteOffset": 3952716,
      "componentType": 5126,
      "count": 15639,
      "max": [
        0.9999952912330627,
        0.9999945163726807,
        0.9999984502792358
      ],
      "min": [
        -0.9999973773956299,
        -0.9999299049377441,
        -0.9999980926513672
      ],
      "type": "VEC3"
    },
    {
      "bufferView": 1,
      "byteOffset": 1255016,
      "componentType": 5126,
      "count": 15639,
      "max": [
        0.9997559785842896,
        1.9997559785842896
      ],
      "min": [
        0.00024399999529123306,
        1.0002440214157104
      ],
      "type": "VEC2"
    },
    {
      "bufferView": 0,
      "byteOffset": 1664664,
      "componentType": 5125,
      "count": 27138,
      "type": "SCALAR"
    },
    {
      "bufferView": 2,
      "byteOffset": 4140384,
      "componentType": 5126,
      "count": 65532,
      "max": [
        17.224376678466797,
        4.76837158203125e-06,
        21.26013946533203
      ],
      "min": [
        -18.119537353515625,
        -16.52684783935547,
        -10.992301940917969
      ],
      "type": "VEC3"
    },
    {
      "bufferView": 2,
      "byteOffset": 4926768,
      "componentType": 5126,
      "count": 65532,
      "max": [
        0.999999463558197,
        0.9999998807907104,
        0.9999996423721313
      ],
      "min": [
        -0.9999984502792358,
        -0.9999998211860657,
        -0.999999463558197
      ],
      "type": "VEC3"
    },
    {
      "bufferView": 1,
      "byteOffset": 1380128,
      "componentType": 5126,
      "count": 65532,
      "max": [
        1.9997559785842896,
        0.9997559785842896
      ],
      "min": [
        1.0002440214157104,
        0.00024399999529123306
      ],
      "type": "VEC2"
    },
    {
      "bufferView": 0,
      "byteOffset": 1773216,
      "componentType": 5125,
      "count": 178014,
      "type": "SCALAR"
    },
    {
      "bufferView": 2,
      "byteOffset": 5713152,
      "componentType": 5126,
      "count": 28244,
      "max": [
        17.22085952758789,
        -1.4178829193115234,
        21.25505828857422
      ],
      "min": [
        -18.119062423706055,
        -16.300823211669922,
        -10.9766845703125
      ],
      "type": "VEC3"
    },
    {
      "bufferView": 2,
      "byteOffset": 6052080,
      "componentType": 5126,
      "count": 28244,
      "max": [
        0.9999973773956299,
        0.9999702572822571,
        0.9999949932098389
      ],
      "min": [
        -0.9999818205833435,
        -0.9999986886978149,
        -0.9999819397926331
      ],
      "type": "VEC3"
    },
    {
      "bufferView": 1,
      "byteOffset": 1904384,
      "componentType": 5126,
      "count": 28244,
      "max": [
        1.9997559785842896,
        0.9997559785842896
      ],
      "min": [
        1.0002440214157104,
        0.00024399999529123306
      ],
      "type": "VEC2"
    },
    {
      "bufferView": 0,
      "byteOffset": 2485272,
      "componentType": 5125,
      "count": 46668,
      "type": "SCALAR"
    },
    {
      "bufferView": 2,
      "byteOffset": 6391008,
      "componentType": 5126,
      "count": 59640,
      "max": [
        17.226552963256836,
        4.76837158203125e-06,
        21.26713752746582
      ],
      "min": [
        -18.119094848632813,
        -16.251068115234375,
        -10.994412422180176
      ],
      "type": "VEC3"
    },
    {
      "bufferView": 2,
      "byteOffset": 7106688,
      "componentType": 5126,
      "count": 59640,
      "max": [
        1.0,
        0.9999358654022217,
        1.0
      ],
      "min": [
        -0.9999997615814209,
        -0.9999997019767761,
        -0.9999999403953552
      ],
      "type": "VEC3"
    },
    {
      "bufferView": 1,
      "byteOffset": 2130336,
      "componentType": 5126,
      "count": 59640,
      "max": [
        1.9997559785842896,
        1.9851069450378418
      ],
      "min": [
        1.0002440214157104,
        1.0002449750900269
      ],
      "type": "VEC2"
    },
    {
      "bufferView": 0,
      "byteOffset": 2671944,
      "componentType": 5125,
      "count": 191163,
      "type": "SCALAR"
    }
  ],
  "asset": {
    "extras": {
      "author": "Miguel Bandera (https://sketchfab.com/miguelbandera)",
      "license": "CC-BY-NC-SA-4.0 (http://creativecommons.org/licenses/by-nc-sa/4.0/)",
      "source": "https://sketchfab.com/3d-models/an-dinh-palace-photogrammetry-lidar-dca05e147d79420eb3696eefcf8e1f19",
      "title": "An Dinh Palace photogrammetry + lidar"
    },
    "generator": "Sketchfab-12.66.0",
    "version": "2.0"
  },
  "bufferViews": [
    {
      "buffer": 0,
      "byteLength": 3436596,
      "name": "floatBufferViews",
      "target": 34963
    },
    {
      "buffer": 0,
      "byteLength": 2607456,
      "byteOffset": 3436596,
      "byteStride": 8,
      "name": "floatBufferViews",
      "target": 34962
    },
    {
      "buffer": 0,
      "byteLength": 7822368,
      "byteOffset": 6044052,
      "byteStride": 12,
      "name": "floatBufferViews",
      "target": 34962
    }
  ],
  "buffers": [
    {
      "byteLength": 13866420,
      "uri": "scene.bin"
    }
  ],
  "extensionsUsed": [
    "KHR_materials_unlit"
  ],
  "images": [
    {
      "uri": "textures/dihn_laser_fotos280k_Material_u1_v1_baseColor.jpeg"
    },
    {
      "uri": "textures/dihn_laser_fotos280k_Material_u1_v2_baseColor.jpeg"
    },
    {
      "uri": "textures/dihn_laser_fotos280k_Material_u2_v1_baseColor.jpeg"
    },
    {
      "uri": "textures/dihn_laser_fotos280k_Material_u2_v2_baseColor.jpeg"
    }
  ],
  "materials": [
    {
      "doubleSided": true,
      "extensions": {
        "KHR_materials_unlit": {}
      },
      "name": "dihn_laser_fotos280k_Material_u1_v1",
      "pbrMetallicRoughness": {
        "baseColorTexture": {
          "index": 0
        },
        "metallicFactor": 0.0
      }
    },
    {
      "doubleSided": true,
      "extensions": {
        "KHR_materials_unlit": {}
      },
      "name": "dihn_laser_fotos280k_Material_u1_v2",
      "pbrMetallicRoughness": {
        "baseColorTexture": {
          "index": 1
        },
        "metallicFactor": 0.0
      }
    },
    {
      "doubleSided": true,
      "extensions": {
        "KHR_materials_unlit": {}
      },
      "name": "dihn_laser_fotos280k_Material_u2_v1",
      "pbrMetallicRoughness": {
        "baseColorTexture": {
          "index": 2
        },
        "metallicFactor": 0.0
      }
    },
    {
      "doubleSided": true,
      "extensions": {
        "KHR_materials_unlit": {}
      },
      "name": "dihn_laser_fotos280k_Material_u2_v2",
      "pbrMetallicRoughness": {
        "baseColorTexture": {
          "index": 3
        },
        "metallicFactor": 0.0
      }
    }
  ],
  "meshes": [
    {
      "name": "Object_0",
      "primitives": [
        {
          "attributes": {
            "NORMAL": 1,
            "POSITION": 0,
            "TEXCOORD_0": 2
          },
          "indices": 3,
          "material": 0,
          "mode": 4
        }
      ]
    },
    {
      "name": "Object_1",
      "primitives": [
        {
          "attributes": {
            "NORMAL": 5,
            "POSITION": 4,
            "TEXCOORD_0": 6
          },
          "indices": 7,
          "material": 0,
          "mode": 4
        }
      ]
    },
    {
      "name": "Object_2",
      "primitives": [
        {
          "attributes": {
            "NORMAL": 9,
            "POSITION": 8,
            "TEXCOORD_0": 10
          },
          "indices": 11,
          "material": 1,
          "mode": 4
        }
      ]
    },
    {
      "name": "Object_3",
      "primitives": [
        {
          "attributes": {
            "NORMAL": 13,
            "POSITION": 12,
            "TEXCOORD_0": 14
          },
          "indices": 15,
          "material": 1,
          "mode": 4
        }
      ]
    },
    {
      "name": "Object_4",
      "primitives": [
        {
          "attributes": {
            "NORMAL": 17,
            "POSITION": 16,
            "TEXCOORD_0": 18
          },
          "indices": 19,
          "material": 2,
          "mode": 4
        }
      ]
    },
    {
      "name": "Object_5",
      "primitives": [
        {
          "attributes": {
            "NORMAL": 21,
            "POSITION": 20,
            "TEXCOORD_0": 22
          },
          "indices": 23,
          "material": 2,
          "mode": 4
        }
      ]
    },
    {
      "name": "Object_6",
      "primitives": [
        {
          "attributes": {
            "NORMAL": 25,
            "POSITION": 24,
            "TEXCOORD_0": 26
          },
          "indices": 27,
          "material": 3,
          "mode": 4
        }
      ]
    }
  ],
  "nodes": [
    {
      "children": [
        1
      ],
      "matrix": [
        1.0,
        0.0,
        0.0,
        0.0,
        0.0,
        -0.9997847080230713,
        0.02075001038610913,
        0.0,
        0.0,
        -0.02075001038610913,
        -0.9997847080230713,
        0.0,
        0.0,
        -3.037851095199588,
        13.589593887329102,
        1.0
      ],
      "name": "Sketchfab_model"
    },
    {
      "children": [
        2,
        3,
        4,
        5,
        6,
        7,
        8
      ],
      "name": "dihn_laser_fotos280k.obj.cleaner.materialmerger.gles"
    },
    {
      "mesh": 0,
      "name": "Object_2"
    },
    {
      "mesh": 1,
      "name": "Object_3"
    },
    {
      "mesh": 2,
      "name": "Object_4"
    },
    {
      "mesh": 3,
      "name": "Object_5"
    },
    {
      "mesh": 4,
      "name": "Object_6"
    },
    {
      "mesh": 5,
      "name": "Object_7"
    },
    {
      "mesh": 6,
      "name": "Object_8"
    }
  ],
  "samplers": [
    {
      "magFilter": 9729,
      "minFilter": 9987,
      "wrapS": 10497,
      "wrapT": 10497
    }
  ],
  "scene": 0,
  "scenes": [
    {
      "name": "Sketchfab_Scene",
      "nodes": [
        0
      ]
    }
  ],
  "textures": [
    {
      "sampler": 0,
      "source": 0
    },
    {
      "sampler": 0,
      "source": 1
    },
    {
      "sampler": 0,
      "source": 2
    },
    {
      "sampler": 0,
      "source": 3
    }
  ]
}
